<?xml version="1.0" encoding="utf-8"?>
<!-- Generator: Adobe Illustrator 21.1.0, SVG Export Plug-In . SVG Version: 6.00 Build 0)  -->
<svg version="1.1" id="Layer_1" xmlns="http://www.w3.org/2000/svg" xmlns:xlink="http://www.w3.org/1999/xlink" x="0px" y="0px"
	 viewBox="0 0 202.3 29.5" style="enable-background:new 0 0 202.3 29.5;" xml:space="preserve">
<style type="text/css">
	.st0{fill:#221F1F;}
</style>
<g>
	<g>
		<g>
			<g>
				<g>
					<polygon class="st0" points="6.8,5.8 9,10.1 13.7,10.8 10.3,14.1 11.1,18.8 6.8,16.6 2.6,18.8 3.4,14.1 0,10.8 4.7,10.1 					
						"/>
				</g>
			</g>
		</g>
	</g>
</g>
<g>
	<g>
		<g>
			<g>
				<g>
					<polygon class="st0" points="68.1,5.6 70.2,9.9 74.9,10.6 71.5,13.9 72.3,18.6 68.1,16.4 63.8,18.6 64.6,13.9 61.2,10.6 
						66,9.9 					"/>
				</g>
			</g>
		</g>
	</g>
</g>
<g>
	<g>
		<g>
			<g>
				<g>
					<polygon class="st0" points="127.9,5.8 130,10 134.7,10.7 131.3,14.1 132.1,18.8 127.9,16.6 123.7,18.8 124.5,14.1 121.1,10.7 
						125.8,10 					"/>
				</g>
			</g>
		</g>
	</g>
</g>
<path class="st0" d="M168.9,8.8c0.1,0.6,0.1,0.8,0.3,0.9c0.1,0.1,0.3,0.2,0.4,0.4c0.1,0.1,0.2,0.3,0.3,0.3c0.1,0.1,0.2,0.2,0.4,0.3
	c0.2,0.2,0.4,0.3,0.8,0.3c0.1,0,0.3,0,0.4,0c0.1,0,0.3,0.3,0.6,0.5c0.5,0.5,0.9,0.7,1.3,0.7c0.3,0,0.5,0,0.4,0.7
	c-0.1,0.5-0.1,0.6,0,0.9c0,0.1,0.1,0.3,0.1,0.4c0,0.1,0,0.3,0.1,0.6c0.1,0.5,0.1,0.5,0,1.3c-0.1,1.5-0.1,1.9,0.3,3.1
	c0.3,0.8,0.6,2.1,0.7,2.8c0,0.3,0.1,0.6,0.2,0.8c0.1,0.2,0.1,0.4,0.1,0.6c0,0.3,0,0.4-0.1,0.6c-0.2,0.3-0.4,0.5-0.7,0.6
	c-0.3,0.1-0.6,0.3-0.8,0.5c-0.3,0.3-0.8,0.5-0.8,1c0.2,0.6,0.8,0.6,1.6,0.7c0.6,0.1,1.5,0.2,2-0.4c0.2-0.1,0.6-0.5,0.7-0.6
	c0-0.1,0.2-0.2,0.2-0.4c0-0.1,0.1-0.4,0.2-0.5c0.1-0.2,0.1-0.3,0.1-0.4c0-0.1,0-0.2,0-0.2c0.1,0,0.1-0.4,0-0.7
	c-0.1-0.3-0.1-0.3,0-0.4c0.1-0.1,0.1-0.2,0.2-0.3c0.1-0.2,0.1-0.2,0.1-0.4c0-0.1-0.1-0.4-0.1-0.6c0-0.2-0.1-0.4-0.1-0.6
	c0-0.1,0-0.5-0.1-1.1c0.3-0.3,0.5-1.4,0.6-2.1c0.3,0.2,0.6,0.4,0.7,0.4c0.2,0.1,0.9,0.3,1,0.3c0.1,0,0.2,0,0.3,0.1
	c0.4,0.2,1,0.3,2,0.4c0.4,0,1.3-0.1,1.9-0.3c0.3,0.6,0.7,1.2,0.7,1.2c-0.1,0.3,0.1,1.5,0.3,2.2c0,0.2-0.1,0.4-0.2,0.6
	c-0.1,0.2-0.1,0.4-0.1,0.6c0,0.1,0,0.3-0.1,0.4c0,0.1,0,0.5,0,0.9c0,0.4,0,0.8,0,0.8c0,0-0.1,0.2-0.1,0.4c-0.1,0.3-0.2,0.6-0.4,0.8
	c-0.1,0.1-0.4,0.4-0.5,0.6l-0.2,0.4l0.1,0.2c0.1,0.1,0.1,0.2,0.1,0.3c0,0,0,0.1,0.1,0.2c0.1,0.1,0.1,0.3,0.1,0.4
	c0,0.2,0.1,0.2,0.2,0.3c0.2,0.1,0.5,0.2,0.7,0.1c0.6-0.1,1.2-0.3,1.3-0.4c0,0,0.1,0,0.2,0c0.1,0,0.2,0,0.3-0.1
	c0.1-0.1,0.2-0.2,0.2-0.2c0-0.1,0.1-0.1,0.2-0.2c0.3-0.6,0.3-1.1,0-1.5l0-0.5c0-0.3,0-0.6,0-0.7c-0.1-0.2,0-0.5,0.1-0.7
	c0-0.1,0.1-0.1,0.2-0.7c0.1-1.3,0.6-2.2,0.6-2.4c0-0.1,0.1-0.3,0.1-0.4c0-0.1,0.1-0.3,0.1-0.4c0.2-0.5,0.4-1.8,0.4-2.3
	c0-0.2-0.1-0.5-0.1-0.8c0-0.5,0-0.6,0.1-0.6c0.1,0,0.1-0.1,0.1-0.1c0,0,0.3-0.2,0.5-0.3c0,0,0.1,0,0.1,0c0.1,0,0.1,0,0.1,0.2
	c0,0.2,0.5,1.4,0.5,1.2c0,0,0.1,0.1,0.1,0.2c0,0.1,0.1,0.3,0.2,0.4c0.1,0.1,0.2,0.3,0.2,0.4c0,0.1,0.1,0.3,0.2,0.4
	c0.1,0.3,0.1,0.3,0.1,1c0,0.6,0,0.7-0.2,1c-0.1,0.2-0.2,0.4-0.3,0.5s-0.1,0.1-0.1,0.2c0,0.1-0.4,0.4-0.5,0.4c0,0-0.1,0.1-0.2,0.1
	c-0.2,0.1-0.6,0.5-0.8,0.5c-0.4,0.4-0.8,0.6-0.5,1.4c0.5,0.3,0.7,0.1,1.4,0.2c0.7,0.1,1.2-0.2,1.8-0.5c0.1-0.1,0.3-0.5,0.3-0.6
	c0-0.1,0.1-0.3,0.2-0.5c0.2-0.2,0.2-0.4,0.3-0.6c0-0.1,0.1-0.2,0.1-0.2c0,0,0-0.1,0-0.2c0-0.1,0-0.2,0.1-0.3
	c0.1-0.1,0.1-0.2,0.1-0.2c0,0,0.1-0.3,0.2-0.5c0.1-0.2,0.3-0.6,0.3-0.7c0.1-0.2,0.1-0.4,0.2-0.4c0.1-0.2,0.1-0.5,0-0.7
	c-0.1-0.3-0.2-0.4-0.4-0.7c-0.1-0.1-0.2-0.3-0.2-0.4c0-0.1-0.1-0.2-0.1-0.4c0-0.1-0.1-0.4-0.1-0.7c0-0.4,0-0.5,0-0.7c0,0,0,0,0,0
	c0,0,0,0,0,0c0.9-0.6,1.2-1.9,1.3-2.6c0.1,0,0.2,0,0.2-0.1c0.1,0,0.2-0.1,0.4-0.1c0.2,0,0.3,0,0.4,0.1c0.2,0.2,0.8,1,1.1,1.7
	c0.2,0.4,0.6,0.8,0.9,1.1c0.1,0.1,0.4,0.4,0.5,0.6c0.2,0.2,0.4,0.4,0.4,0.5c0.1,0.1,0.3,0.3,0.4,0.5c0.1,0.2,0.3,0.4,0.4,0.5
	c0.2,0.2,0.7,0.6,0.8,0.9c0,0.1,0,0.3,0.1,0.6c0.1,0.2,0.2,0.5,0.3,0.6c0.2,0.3,0.3,0.5,0.3,1c0,0.3,0,0.6,0.1,0.8
	c0,0.2,0,0.5,0,0.7c0,0.2-0.1,0.4-0.1,0.5c0,0.1,0,0.2-0.1,0.2c-0.1,0-0.2,0.8-0.1,1c0.2,0.8,0.7,0.8,1.1,0.7
	c0.9-0.2,1.4-0.2,1.7-0.7c0.1-0.2-0.2-1-0.2-1.1c0-0.2-0.2-1.3-0.3-1.5c-0.2-0.3-0.2-1.7-0.1-2.4c0.1-0.6,0-1.4-0.2-1.5
	c-0.1-0.1-0.4-0.6-0.6-0.9c-0.1-0.3-0.2-0.4-0.2-1c0-0.4-0.1-0.8-0.1-1c-0.1-0.3-0.1-0.6-0.1-1.1c0-0.1,0-0.3,0-0.6
	c0.1-1.6,0.1-3.2-0.9-4.6c0-0.1-0.1-0.2-0.1-0.2c0,0,0.1-0.1,0.2-0.2c0.1-0.3,0.2-0.9-0.4-1.8c-0.1-0.1-0.1-0.1-0.2-0.2
	c0,0-0.1-0.1-0.1-0.2c-0.3-0.4-1-0.9-1.3-1.1c-0.8-0.6-1.4-0.8-2.4-1.2c-0.6-0.2-1.1-0.2-1.7-0.3c-0.2,0-0.7,0-1.1,0
	c-1.7,0.1-2.9,0.7-3,0.8c-0.5,0.2-1,0.4-1.4,0.5c-0.1,0-0.3,0.2-0.5,0.2c-2,0.5-2.1,0.2-3.3-0.1c-0.1,0-0.2-0.1-0.4-0.1
	c-0.4,0-0.9-0.2-1-0.3c-0.3-0.3-0.7-0.5-0.8-0.6c-0.5-0.6-0.4-0.8-0.5-1.1c-0.2-0.4-0.5-0.9-0.6-1.2c0-0.1-0.1-0.1-0.2-0.2
	c-0.1-0.1-0.3-0.3-0.6-0.5c-0.2-0.1-0.3-0.1-0.7-0.1c-0.3,0-0.5,0-0.5-0.1c0,0-0.2-0.1-0.4-0.2c-0.2-0.1-0.4-0.2-0.5-0.2
	c-0.1,0-0.2-0.1-0.3-0.1c-0.1,0-0.2,0-0.3-0.1c-0.1,0-0.3-0.1-0.4-0.1c-0.4-0.1-1.1-0.3-1.3-0.5c-0.3-0.3-0.6-0.5-0.9-0.5
	c-0.1,0-0.1,0-0.2,0c-0.4,0-0.9,0.1-1.2,0.2c-0.1,0.1-0.4,0.2-0.6,0.2c-0.4,0.1-0.5,0.3-0.8,0.7c-0.1,0.2-0.2,0.4-0.2,0.6
	c0,0.2,0,0.3,0,0.4c0,0,0,0.1,0,0.2c0,0.2-0.3,0.8-0.6,1c-0.4,0.3-0.6,0.4-0.7,0.8c-0.1,0.4-0.1,0.4,0,1.3l0.1,0.6c0,0,0,0,0,0.1
	l-0.3,0.3c-0.4,0.3-0.7,0.8-0.9,1.2c-0.1,0.1-0.1,0.3-0.2,0.3C169.1,7.8,169,8,169,8.1C168.9,8.3,168.9,8.4,168.9,8.8z"/>
</svg>
