<?xml version="1.0" encoding="utf-8"?>
<!-- Generator: Adobe Illustrator 21.1.0, SVG Export Plug-In . SVG Version: 6.00 Build 0)  -->
<svg version="1.1" id="Layer_1" xmlns="http://www.w3.org/2000/svg" xmlns:xlink="http://www.w3.org/1999/xlink" x="0px" y="0px"
	 viewBox="0 0 127.8 127.8" style="enable-background:new 0 0 127.8 127.8;" xml:space="preserve">
<style type="text/css">
	.st0{fill:#221F1F;}
</style>
<g>
	<g>
		<path class="st0" d="M46,95.7V78.1h-2.4v-2.2c1.9-0.3,3.1-1.6,3.4-3.4h2.5v23.2H46z"/>
	</g>
	<g>
		<path class="st0" d="M57.2,96c-2.4,0-4.1-1.9-4.1-4.3v-2.4h3.4v2.3c0,0.4,0.3,0.7,0.7,0.7s0.7-0.3,0.7-0.7v-5.4
			c-0.5,0.4-1.3,0.7-2,0.7c-1.6,0-2.8-1.3-2.8-2.9v-7.6c0-2.4,1.8-4.3,4.1-4.3c2.4,0,4.1,1.9,4.1,4.3v15.3C61.4,94,59.6,96,57.2,96z
			 M57.9,76.5c0-0.4-0.3-0.7-0.7-0.7s-0.7,0.3-0.7,0.7v6.6c0,0.4,0.3,0.7,0.7,0.7s0.7-0.3,0.7-0.7V76.5z"/>
	</g>
	<g>
		<path class="st0" d="M68.5,96c-2.4,0-4.1-1.9-4.1-4.3v-2.4h3.4v2.3c0,0.4,0.3,0.7,0.7,0.7c0.4,0,0.7-0.3,0.7-0.7v-5.4
			c-0.5,0.4-1.3,0.7-2,0.7c-1.6,0-2.8-1.3-2.8-2.9v-7.6c0-2.4,1.8-4.3,4.1-4.3c2.4,0,4.1,1.9,4.1,4.3v15.3C72.6,94,70.8,96,68.5,96z
			 M69.2,76.5c0-0.4-0.3-0.7-0.7-0.7c-0.4,0-0.7,0.3-0.7,0.7v6.6c0,0.4,0.3,0.7,0.7,0.7c0.4,0,0.7-0.3,0.7-0.7V76.5z"/>
	</g>
	<g>
		<path class="st0" d="M81.4,85.6c-1,2.3-1.7,3.8-2.1,6.5h4.3v3.5h-8.2c0-3.7,1.2-7.8,2.9-11.3c1.6-3.3,2.4-5.1,2.4-7.8
			c0-0.7-0.4-1-0.9-1s-1,0.3-1,1v3.3h-3.3v-3.4c0-2.4,1.8-4.3,4.1-4.3c2.9,0,4.4,2.2,4.4,5.4C84.1,79.9,82.5,83.2,81.4,85.6z"/>
	</g>
</g>
<g>
	<rect x="27.5" y="62.9" class="st0" width="72.7" height="1.9"/>
</g>
<g>
	<g>
		<path class="st0" d="M27.1,20.1c1.9-1.7,3.9-1.9,5.2-0.4c1.4,1.5,1,3.5-0.9,5.2l-1.8,1.6l1.8,1.9l-2.3,2.1L23,23.8L27.1,20.1z
			 M28.2,24.9l1.4-1.3c0.8-0.8,0.9-1.4,0.5-1.9s-1-0.5-1.9,0.3l-1.4,1.3L28.2,24.9z"/>
	</g>
	<g>
		<path class="st0" d="M44.6,17.9L40.5,20v1.5l-2.7,1.3l-0.1-10.1l3-1.5l8,6.2l-3,1.5L44.6,17.9z M40.4,17.8l2.5-1.3l-2.6-2l0,0
			L40.4,17.8z"/>
	</g>
	<g>
		<path class="st0" d="M51.7,7.5l3.7,5.4l0,0L57,6.5L60.3,6l-2.9,9.7l-3.1,0.5l-6-8.2L51.7,7.5z"/>
	</g>
	<g>
		<path class="st0" d="M76.3,11.9c-0.4,2.9-2.9,4.4-6.3,4c-3.3-0.4-5.4-2.6-5-5.5s2.9-4.4,6.2-4C74.6,6.9,76.7,9,76.3,11.9z
			 M68.1,10.8c-0.2,1.6,0.8,2.6,2.2,2.8c1.4,0.2,2.7-0.5,2.9-2.1c0.2-1.6-0.8-2.6-2.2-2.8C69.6,8.5,68.3,9.2,68.1,10.8z"/>
	</g>
	<g>
		<path class="st0" d="M86.1,10.8l2,6.7l0,0l2.2-4.6l2.5,1.2l-4,8.1l-2.7-1.3l-2-6.8l0,0L82,18.8l-2.5-1.2l4-8.1L86.1,10.8z"/>
	</g>
	<g>
		<path class="st0" d="M105.4,24.5l-1.5,1.6l-4.5-4.2l-0.9,0.9l3.4,3.2l-1.4,1.5l-3.4-3.2l-0.9,1l4.5,4.2l-1.5,1.6l-6.7-6.3l6.2-6.6
			L105.4,24.5z"/>
	</g>
</g>
<g>
	<g>
		<path class="st0" d="M18.4,42.6l-1.3-0.7l1-1.9l-3.3-1.8l0.8-1.5l3.3,1.8l1-1.9l1.3,0.7L18.4,42.6z"/>
	</g>
	<g>
		<path class="st0" d="M16.9,46h-3.4l0,0l2.7,2.1l-0.5,1.6l-3.4,0.2l0,0l2.8,2l-0.5,1.8l-4.4-3.5l0.5-1.6l3.5-0.2l0,0l-2.7-2.2
			l0.5-1.6l5.6-0.4L16.9,46z"/>
	</g>
	<g>
		<path class="st0" d="M13.7,61l-1.3-0.1l0.4-3.6l-0.7-0.1l-0.3,2.7l-1.2-0.1l0.3-2.7L10.2,57l-0.4,3.6l-1.3-0.1l0.6-5.3l5.2,0.6
			L13.7,61z"/>
	</g>
	<g>
		<path class="st0" d="M13.7,65.3l-2.8,2.9l0,0l3-0.2l0.1,1.6l-5.2,0.3l-0.1-1.7l2.9-2.9l0,0l-3,0.2l-0.1-1.6l5.2-0.3V65.3z"/>
	</g>
	<g>
		<path class="st0" d="M15.6,77.8l-1.4,0.3L13.7,76L10,76.9l-0.4-1.7l3.7-0.8l-0.5-2.1l1.4-0.3L15.6,77.8z"/>
	</g>
	<g>
		<path class="st0" d="M16.8,81.4l-1.4,2l2.4,0.5l0.7,1.8l-4.1-1.1l-1.7,0.7L12,83.7l1.7-0.7l2.2-3.6L16.8,81.4z"/>
	</g>
	<g>
		<path class="st0" d="M18.9,90.4l-1,0.6l-1.4-2.6l1-0.6L18.9,90.4z"/>
	</g>
	<g>
		<path class="st0" d="M25.1,95.8L24,96.6l-2.1-2.9l-0.7,0.5l1.6,2.2l-1,0.8L20.2,95l-1.4,1l-1-1.4l4.2-3.1L25.1,95.8z"/>
	</g>
	<g>
		<path class="st0" d="M28,98.9l-3.8,3.6l-1.2-1.3l3.8-3.6L28,98.9z"/>
	</g>
	<g>
		<path class="st0" d="M31,101.8l-1,3.6l0,0l3.4-1.7l1.5,1.2l-5.3,2.4l-1.4-1.1l1.3-5.7L31,101.8z"/>
	</g>
	<g>
		<path class="st0" d="M41.3,108.8l-0.6,1.1l-3.1-1.8l-0.4,0.6l2.3,1.3l-0.6,1l-2.3-1.3l-0.4,0.7l3.1,1.8l-0.6,1.1l-4.6-2.6l2.6-4.5
			L41.3,108.8z"/>
	</g>
	<g>
		<path class="st0" d="M50.1,112.1c1.3,0.4,1.8,1.2,1.6,1.9c-0.2,0.7-0.7,0.8-1.4,0.8l0,0c0.7,0.4,1,0.9,0.8,1.6
			c-0.3,0.8-1.1,1.1-2.4,0.7l-3.6-1.1l1.5-5L50.1,112.1z M47.1,115.4l1.6,0.5c0.4,0.1,0.7,0,0.7-0.2c0.1-0.3-0.1-0.5-0.5-0.6
			l-1.6-0.5L47.1,115.4z M47.7,113.5l1.6,0.5c0.4,0.1,0.6,0,0.7-0.2c0.1-0.2-0.1-0.4-0.5-0.6l-1.6-0.5L47.7,113.5z"/>
	</g>
	<g>
		<path class="st0" d="M56.2,113.5l-0.3,2.7c-0.1,0.8,0.3,1.4,1.1,1.5s1.4-0.3,1.5-1.1l0.3-2.7l1.7,0.2l-0.3,2.6
			c-0.2,1.8-1.3,2.6-3.4,2.4c-2-0.3-2.9-1.4-2.7-3.1l0.3-2.6L56.2,113.5z"/>
	</g>
	<g>
		<path class="st0" d="M64.8,114l0.1,3.8l3.3-0.1v1.4l-5,0.1L63,114L64.8,114z"/>
	</g>
	<g>
		<path class="st0" d="M72.1,113.4l0.7,3.8l3.2-0.6l0.2,1.4l-4.9,0.9l-0.9-5.2L72.1,113.4z"/>
	</g>
	<g>
		<path class="st0" d="M80.1,111.4c2.1-0.7,3.5-0.1,4,1.4s-0.2,2.9-2.3,3.6l-2.6,0.9l-1.7-5L80.1,111.4z M80.5,115.4l0.9-0.3
			c1-0.3,1.4-0.9,1.1-1.7c-0.3-0.8-1-1-1.9-0.7l-0.9,0.3L80.5,115.4z"/>
	</g>
	<g>
		<path class="st0" d="M92.2,108.6c0.8,1.5,0.2,3.1-1.5,4s-3.4,0.6-4.2-0.8c-0.8-1.5-0.2-3.1,1.5-4
			C89.7,106.8,91.4,107.1,92.2,108.6z M88,110.9c0.5,0.8,1.3,0.9,2,0.5s1.1-1.2,0.6-2s-1.3-0.9-2-0.5S87.5,110,88,110.9z"/>
	</g>
	<g>
		<path class="st0" d="M98.4,107.4c-1.4,1.1-3,1.1-4-0.2c-1.1-1.4-0.7-3.1,0.9-4.4c0.8-0.6,1.6-1,2.5-1.1l0.2,1.4
			c-0.6,0.1-1.3,0.4-1.9,0.8c-0.8,0.6-0.9,1.5-0.4,2.2c0.4,0.5,1.2,0.7,2,0.1c0.5-0.4,0.7-1,0.6-1.4l-1.1,0.9l-0.6-0.8L99,103
			l1.8,2.3l-0.5,0.4l-0.7-0.5C99.5,105.9,99.3,106.7,98.4,107.4z"/>
	</g>
	<g>
		<path class="st0" d="M105.2,101c-1.2,1.4-2.7,1.6-4,0.5c-1.3-1.2-1.2-2.9,0.1-4.5c0.7-0.8,1.5-1.2,2.3-1.5l0.5,1.3
			c-0.6,0.2-1.3,0.6-1.7,1.1c-0.7,0.8-0.7,1.6,0,2.2c0.5,0.5,1.3,0.5,2-0.3c0.5-0.5,0.6-1.1,0.3-1.5l-0.9,1.1l-0.7-0.7l2-2.3l2.2,2
			l-0.5,0.5l-0.8-0.4C106.1,99.4,105.9,100.1,105.2,101z"/>
	</g>
	<g>
		<path class="st0" d="M107.7,88.5l1.1,0.7l-1.9,3l0.6,0.4l1.4-2.3l1,0.6l-1.4,2.2l0.7,0.4l1.9-3l1.1,0.7l-2.9,4.5l-4.4-2.8
			L107.7,88.5z"/>
	</g>
	<g>
		<path class="st0" d="M109.9,83.8c0.9-2,2.2-2.7,3.7-2c1.5,0.6,2,2.1,1.1,4.1l-1.1,2.5l-4.8-2.1L109.9,83.8z M113.1,86.2l0.4-0.9
			c0.4-0.9,0.2-1.6-0.5-2s-1.4,0-1.8,1l-0.4,0.9L113.1,86.2z"/>
	</g>
	<g>
		<path class="st0" d="M113.1,73.8l2.2-1l-1.8-1.7l0.3-1.9l2.9,3.1l1.8,0.3l-0.3,1.7l-1.8-0.3l-3.8,1.9L113.1,73.8z"/>
	</g>
	<g>
		<path class="st0" d="M114.1,61.9h1.3l-0.1,3.6h0.7v-2.7h1.2v2.7h0.8l0.1-3.6h1.3l-0.1,5.3l-5.2-0.1L114.1,61.9z"/>
	</g>
	<g>
		<path class="st0" d="M117.7,54.5l0.4,2.7l0.8,0.3l0.3,1.7l-5.6-1.8l-0.3-1.9l4.8-3.3l0.3,1.9L117.7,54.5z M116.9,56.8l-0.2-1.6
			l-1.6,1.1l0,0L116.9,56.8z"/>
	</g>
	<g>
		<path class="st0" d="M116.9,47.6l0.6,1.7l-5,1.6l-1.1-3.3c-0.5-1.4-0.1-2.4,1-2.8c0.8-0.3,1.5,0.1,2,0.7l1.2-2l0.6,1.9l-1.1,1.8
			l0.3,0.9L116.9,47.6z M114.2,48.5l-0.4-1.3c-0.2-0.6-0.5-0.8-0.8-0.7s-0.5,0.4-0.3,1l0.4,1.3L114.2,48.5z"/>
	</g>
	<g>
		<path class="st0" d="M107.5,38l1.3-0.1c0.1,0.9,0.3,1.7,0.7,2.4c0.4,0.7,0.6,0.8,0.8,0.8s0.1-0.3-0.3-1.5
			c-0.6-1.8-0.7-2.7,0.2-3.1c1-0.5,2.2,0.3,3,1.8c0.6,1.1,0.8,2.1,0.9,3.1l-1.3,0.1c0-0.9-0.3-1.9-0.7-2.7c-0.4-0.8-0.6-1-0.8-0.8
			c-0.2,0.1-0.1,0.3,0.3,1.5c0.6,1.7,0.7,2.7-0.3,3.1c-0.9,0.5-2.1-0.2-2.9-1.8C107.7,39.7,107.6,39,107.5,38z"/>
	</g>
</g>
<g>
	<path class="st0" d="M63.9,127.8C28.7,127.8,0,99.1,0,63.9S28.7,0,63.9,0s63.9,28.7,63.9,63.9S99.1,127.8,63.9,127.8z M63.9,2
		C29.8,2,2,29.8,2,63.9s27.8,61.9,61.9,61.9s61.9-27.8,61.9-61.9S98,2,63.9,2z"/>
</g>
<g>
	<path class="st0" d="M63.9,107.6c-24.1,0-43.8-19.6-43.8-43.7s19.6-43.8,43.8-43.8c24.1,0,43.7,19.6,43.7,43.8
		C107.6,88,88,107.6,63.9,107.6z M63.9,22.1c-23,0-41.8,18.7-41.8,41.8c0,23,18.7,41.7,41.8,41.7c23,0,41.7-18.7,41.7-41.7
		C105.6,40.9,86.9,22.1,63.9,22.1z"/>
</g>
<g>
	<polygon class="st0" points="43.5,56.3 51.4,56.3 51.4,52.7 47.2,52.7 47.2,46.1 50.2,46.1 50.2,42.6 47.2,42.6 47.2,36.7 
		51.4,36.7 51.4,33.1 43.5,33.1 	"/>
	<path class="st0" d="M59.1,43.2c-1.6-2.4-2.3-3.4-2.3-5.7c0-0.8,0.4-1.2,1.1-1.2c0.8,0,1,0.8,1,1.4v3h3.4v-2.9c0-3-1.7-5-4.4-5
		c-2.9,0-4.7,2.1-4.7,5.4c0,2.1,1.1,4.8,3.3,7.9c1.4,2.1,2.3,3.8,2.3,5.8c0,1.4-0.9,1.4-1.2,1.4c-0.7,0-1.1-0.5-1.1-1.5v-2.9H53v2.8
		c0,3.1,1.8,5,4.7,5c2.2,0,4.7-1.4,4.7-5.3c0-2.9-1.6-5.6-3.1-7.8L59.1,43.2z"/>
	<polygon class="st0" points="63.7,36.8 66.5,36.8 66.5,56.3 70.2,56.3 70.2,36.8 72.9,36.8 72.9,33.1 63.7,33.1 	"/>
	<path class="st0" d="M79.7,33.1h-4.8v23.2h4.8c2.9,0,4.5-1.8,4.5-5V38.2C84.2,35,82.5,33.1,79.7,33.1z M80.4,38.1v13.3
		c0,1.3-0.4,1.4-0.9,1.4h-0.9V36.7h0.9C80,36.7,80.4,36.8,80.4,38.1z"/>
</g>
</svg>
