<?xml version="1.0" encoding="utf-8"?>
<!-- Generator: Adobe Illustrator 21.1.0, SVG Export Plug-In . SVG Version: 6.00 Build 0)  -->
<svg version="1.1" id="Layer_1" xmlns="http://www.w3.org/2000/svg" xmlns:xlink="http://www.w3.org/1999/xlink" x="0px" y="0px"
	 viewBox="0 0 30.7 30.7" style="enable-background:new 0 0 30.7 30.7;" xml:space="preserve">
<style type="text/css">
	.st0{fill:none;stroke:#221F1F;stroke-width:1.25;stroke-miterlimit:10;}
	.st1{fill:#221F1F;}
</style>
<g>
	<circle class="st0" cx="15.4" cy="15.4" r="14.6"/>
	<path class="st1" d="M23.6,11.1c-0.6,0.3-1.2,0.4-1.8,0.5c0.7-0.4,1.2-1,1.4-1.8c-0.6,0.4-1.3,0.6-2,0.8c-0.6-0.6-1.4-1-2.3-1
		c-1.8,0-3.2,1.4-3.2,3.2c0,0.3,0,0.5,0.1,0.7c-2.7-0.1-5-1.4-6.6-3.3c-0.3,0.5-0.4,1-0.4,1.6c0,1.1,0.6,2.1,1.4,2.7
		c-0.5,0-1-0.2-1.5-0.4c0,0,0,0,0,0c0,1.6,1.1,2.8,2.6,3.1c-0.3,0.1-0.6,0.1-0.8,0.1c-0.2,0-0.4,0-0.6-0.1c0.4,1.3,1.6,2.2,3,2.2
		c-1.1,0.9-2.5,1.4-4,1.4c-0.3,0-0.5,0-0.8,0c1.4,0.9,3.1,1.4,4.9,1.4c5.9,0,9.1-4.9,9.1-9.1c0-0.1,0-0.3,0-0.4
		C22.6,12.4,23.1,11.8,23.6,11.1z"/>
</g>
</svg>
