<?xml version="1.0" encoding="utf-8"?>
<!-- Generator: Adobe Illustrator 21.1.0, SVG Export Plug-In . SVG Version: 6.00 Build 0)  -->
<svg version="1.1" id="Layer_1" xmlns="http://www.w3.org/2000/svg" xmlns:xlink="http://www.w3.org/1999/xlink" x="0px" y="0px"
	 viewBox="0 0 30.7 30.7" style="enable-background:new 0 0 30.7 30.7;" xml:space="preserve">
<style type="text/css">
	.st0{fill:none;stroke:#221F1F;stroke-width:1.25;stroke-miterlimit:10;}
	.st1{fill:#221F1F;}
</style>
<g>
	<circle class="st0" cx="15.4" cy="15.4" r="14.6"/>
	<rect x="8.8" y="11.9" class="st1" width="3" height="9.5"/>
	<path class="st1" d="M10.3,10.7c-0.9,0-1.5-0.7-1.5-1.5c0-0.8,0.6-1.5,1.6-1.5c1,0,1.5,0.6,1.6,1.5C11.9,10.1,11.3,10.7,10.3,10.7z
		"/>
	<path class="st1" d="M22.6,21.4h-3v-5.3c0-1.2-0.4-2.1-1.5-2.1c-0.8,0-1.3,0.6-1.5,1.1c-0.1,0.2-0.1,0.5-0.1,0.7v5.5h-3v-6.5
		c0-1.2,0-2.2-0.1-3H16l0.1,1.3h0.1c0.4-0.6,1.3-1.5,2.9-1.5c1.9,0,3.4,1.3,3.4,4.1V21.4z"/>
</g>
</svg>
