<?xml version="1.0" encoding="utf-8"?>
<!-- Generator: Adobe Illustrator 24.1.0, SVG Export Plug-In . SVG Version: 6.00 Build 0)  -->
<svg version="1.1" id="Layer_2_1_" xmlns="http://www.w3.org/2000/svg" xmlns:xlink="http://www.w3.org/1999/xlink" x="0px" y="0px"
	 viewBox="0 0 201.1 65.5" style="enable-background:new 0 0 201.1 65.5;" xml:space="preserve">
<style type="text/css">
	.st0{display:none;fill:#231F20;}
	.st1{enable-background:new    ;}
</style>
<path class="st0" d="M16.1,39.4h-5.9c-0.1,0-0.2,0.1-0.2,0.2v24.6c0,0.1-0.1,0.2-0.2,0.2H0.2c-0.1,0-0.2-0.1-0.2-0.2V1.3
	c0-0.1,0.1-0.2,0.2-0.2h15.9c7.2,0,12.3,4,12.3,12.8v12.7C28.5,35.4,23.4,39.4,16.1,39.4z M18.7,14c0-2.8-1-4.2-3.4-4.2h-5
	c-0.1,0-0.2,0.1-0.2,0.2v21.2c0,0.1,0.1,0.2,0.2,0.2h5c2.4,0,3.4-1.4,3.4-4.2V14z"/>
<path class="st0" d="M51.4,64.2l-1.6-12c0-0.1-0.1-0.2-0.2-0.2h-8.9c-0.1,0-0.2,0.1-0.2,0.2l-1.8,12c0,0.1-0.1,0.2-0.2,0.2h-8.8
	c-0.1,0-0.2-0.1-0.2-0.2L40,1.3c0-0.1,0.1-0.2,0.2-0.2H51c0.1,0,0.2,0.1,0.2,0.2l10.5,62.8c0,0.1-0.1,0.2-0.2,0.2h-9.8
	C51.5,64.4,51.4,64.3,51.4,64.2z M45.3,19.2l-3.5,24.1c0,0.1,0.1,0.2,0.2,0.2h6.4c0.1,0,0.2-0.1,0.2-0.2l-2.9-24.1
	C45.7,19,45.3,19,45.3,19.2z"/>
<path class="st0" d="M82.2,64.4h-9.4c-0.1,0-0.2-0.1-0.2-0.2L61.3,1.4c0-0.1,0.1-0.2,0.2-0.2h9.9c0.1,0,0.2,0.1,0.2,0.2l6,42.7
	c0,0.2,0.4,0.2,0.4,0l6.3-42.7c0-0.1,0.1-0.2,0.2-0.2h9.3c0.1,0,0.2,0.1,0.2,0.2L82.4,64.2C82.4,64.3,82.3,64.4,82.2,64.4z"/>
<path class="st0" d="M113.5,65.5c-9.1,0-15.1-6.2-15.1-15V15c0-8.7,6-15,15.1-15s15.1,6.3,15.1,15v35.5
	C128.6,59.3,122.6,65.5,113.5,65.5z M118.5,14.2c0-3-1.8-5.1-4.9-5.1s-4.9,2.1-4.9,5.1v37c0,3,1.8,5.1,4.9,5.1s4.9-2.1,4.9-5.1V14.2
	z"/>
<path class="st0" d="M159.3,64.4c-0.1,0-0.2-0.1-0.2-0.1l-10.6-28.5l-3.1-8.6c-0.1-0.2-0.4-0.2-0.4,0.1v37c0,0.1-0.1,0.2-0.2,0.2
	h-8.7c-0.1,0-0.2-0.1-0.2-0.2v-63c0-0.1,0.1-0.2,0.2-0.2h8.6c0.1,0,0.2,0.1,0.2,0.1l9.8,28.8l2.8,8.6c0.1,0.2,0.4,0.2,0.4-0.1V1.3
	c0-0.1,0.1-0.2,0.2-0.2h8.6c0.1,0,0.2,0.1,0.2,0.2v62.8c0,0.1-0.1,0.2-0.2,0.2h-7.4L159.3,64.4L159.3,64.4z"/>
<path class="st0" d="M175.9,64.2V1.3c0-0.1,0.1-0.2,0.2-0.2H201c0.1,0,0.2,0.1,0.2,0.2v8.5c0,0.1-0.1,0.2-0.2,0.2h-14.8
	c-0.1,0-0.2,0.1-0.2,0.2v17.1c0,0.1,0.1,0.2,0.2,0.2h10.1c0.1,0,0.2,0.1,0.2,0.2v8c0,0.1-0.1,0.2-0.2,0.2h-10.1
	c-0.1,0-0.2,0.1-0.2,0.2V55c0,0.1,0.1,0.2,0.2,0.2H201c0.1,0,0.2,0.1,0.2,0.2v8.8c0,0.1-0.1,0.2-0.2,0.2h-24.9
	C175.9,64.4,175.9,64.3,175.9,64.2z"/>
<g class="st1">
	<path d="M19,42.4c0,2.6-0.7,4.6-2.2,6.2c-1.5,1.6-3.5,2.3-6.2,2.3s-4.8-0.8-6.5-2.5c-1.7-1.7-2.5-3.8-2.5-6.3V21.3
		c0-2.6,0.8-4.7,2.5-6.3c1.6-1.7,3.8-2.5,6.5-2.5s4.7,0.8,6.2,2.3c1.5,1.6,2.2,3.6,2.2,6.2v5.3h-5.2v-5.5c0-0.9-0.3-1.7-0.8-2.2
		c-0.5-0.6-1.3-0.8-2.3-0.8c-1,0-1.8,0.3-2.3,0.8c-0.5,0.6-0.8,1.3-0.8,2.2v21.7c0,0.9,0.3,1.6,0.8,2.2c0.5,0.6,1.3,0.8,2.3,0.8
		c1,0,1.8-0.3,2.3-0.8c0.5-0.6,0.8-1.3,0.8-2.2V37H19V42.4z"/>
	<path d="M36.8,50.2H22.4v-37h5.9v31.7h8.5V50.2z"/>
	<path d="M45.3,50.2h-5.9v-37h5.9V50.2z"/>
	<path d="M64.3,50.2H49.5v-37h14.8v5.2h-8.9v10.2h6.2v4.9h-6.2v11.3h8.9V50.2z"/>
	<path d="M85.6,50.2h-4.6l-6.2-16.8l-2.1-5.7v22.5h-5.3v-37h5.2l5.8,17l1.9,5.7V13.2h5.3V50.2z"/>
	<path d="M105.4,18.6h-5.6v31.7h-5.9V18.6h-5.7v-5.4h17.2V18.6z"/>
	<path d="M133.4,50.2h-4.6l-6.2-16.8l-2.1-5.7v22.5h-5.3v-37h5.2l5.8,17l1.9,5.7V13.2h5.3V50.2z"/>
	<path d="M154.5,50.2h-6l-0.9-7.2h-5.4l-1.1,7.2h-5.4l6.2-37h6.5L154.5,50.2z M146.9,38l-1.8-15.1L142.9,38H146.9z"/>
	<path d="M181.1,50.2h-5.6V22.7l-1.2,7.8l-3.4,19.7h-4.5l-3.3-19.7l-1.1-7.8v27.5h-5.2v-37h8l3.2,18.7l1,7.2l1.1-7.2l3.2-18.7h7.8
		V50.2z"/>
	<path d="M200,50.2h-14.8v-37H200v5.2h-8.9v10.2h6.2v4.9h-6.2v11.3h8.9V50.2z"/>
</g>
</svg>
