<?xml version="1.0" encoding="utf-8"?>
<!-- Generator: Adobe Illustrator 21.1.0, SVG Export Plug-In . SVG Version: 6.00 Build 0)  -->
<svg version="1.1" id="Layer_1" xmlns="http://www.w3.org/2000/svg" xmlns:xlink="http://www.w3.org/1999/xlink" x="0px" y="0px"
	 viewBox="0 0 500 281" style="enable-background:new 0 0 500 281;" xml:space="preserve">
<style type="text/css">
	.st0{fill:#ECF0F1;}
	.st1{fill:#546A79;}
	.st2{fill:#ED7161;}
	.st3{fill:#F0C419;}
	.st4{fill:#4FBA6F;}
	.st5{fill:#BDC3C7;}
</style>
<g>
	<rect class="st0" width="500" height="281"/>
	<rect class="st1" width="500" height="36.5"/>
	<path class="st2" d="M31,18.2c0,4.1-3.3,7.4-7.4,7.4c-4.1,0-7.4-3.3-7.4-7.4c0-4.1,3.3-7.4,7.4-7.4C27.7,10.8,31,14.2,31,18.2
		L31,18.2z M31,18.2"/>
	<path class="st3" d="M55.2,18.2c0,4.1-3.3,7.4-7.4,7.4c-4.1,0-7.4-3.3-7.4-7.4c0-4.1,3.3-7.4,7.4-7.4
		C51.9,10.8,55.2,14.2,55.2,18.2L55.2,18.2z M55.2,18.2"/>
	<path class="st4" d="M79.4,18.2c0,4.1-3.3,7.4-7.4,7.4c-4.1,0-7.4-3.3-7.4-7.4c0-4.1,3.3-7.4,7.4-7.4
		C76.1,10.8,79.4,14.2,79.4,18.2L79.4,18.2z M79.4,18.2"/>
	<rect x="43.1" y="60.7" class="st5" width="413.8" height="79.8"/>
	<rect x="267.3" y="164.7" class="st5" width="189.6" height="92"/>
	<rect x="43.1" y="164.7" class="st5" width="189.7" height="92"/>
</g>
</svg>
