<?xml version="1.0" encoding="utf-8"?>
<!-- Generator: Adobe Illustrator 21.1.0, SVG Export Plug-In . SVG Version: 6.00 Build 0)  -->
<svg version="1.1" id="Layer_2" xmlns="http://www.w3.org/2000/svg" xmlns:xlink="http://www.w3.org/1999/xlink" x="0px" y="0px"
	 viewBox="0 0 201.1 65.5" style="enable-background:new 0 0 201.1 65.5;" xml:space="preserve">
<style type="text/css">
	.st0{display:none;fill:#231F20;}
	.st1{font-family:'Knockout-HTF48-Featherweight';}
	.st2{font-size:55.6304px;}
</style>
<path class="st0" d="M16.1,39.4h-5.9c-0.1,0-0.2,0.1-0.2,0.2v24.6c0,0.1-0.1,0.2-0.2,0.2H0.2c-0.1,0-0.2-0.1-0.2-0.2V1.3
	c0-0.1,0.1-0.2,0.2-0.2h15.9c7.2,0,12.3,4,12.3,12.8v12.7C28.5,35.4,23.4,39.4,16.1,39.4z M18.7,14c0-2.8-1-4.2-3.4-4.2h-5
	c-0.1,0-0.2,0.1-0.2,0.2v21.2c0,0.1,0.1,0.2,0.2,0.2h5c2.4,0,3.4-1.4,3.4-4.2V14z"/>
<path class="st0" d="M51.4,64.2l-1.6-12c0-0.1-0.1-0.2-0.2-0.2h-8.9c-0.1,0-0.2,0.1-0.2,0.2l-1.8,12c0,0.1-0.1,0.2-0.2,0.2h-8.8
	c-0.1,0-0.2-0.1-0.2-0.2L40,1.3c0-0.1,0.1-0.2,0.2-0.2H51c0.1,0,0.2,0.1,0.2,0.2l10.5,62.8c0,0.1-0.1,0.2-0.2,0.2h-9.8
	C51.5,64.4,51.4,64.3,51.4,64.2z M45.3,19.2l-3.5,24.1c0,0.1,0.1,0.2,0.2,0.2h6.4c0.1,0,0.2-0.1,0.2-0.2l-2.9-24.1
	C45.7,19,45.3,19,45.3,19.2z"/>
<path class="st0" d="M82.2,64.4h-9.4c-0.1,0-0.2-0.1-0.2-0.2L61.3,1.4c0-0.1,0.1-0.2,0.2-0.2h9.9c0.1,0,0.2,0.1,0.2,0.2l6,42.7
	c0,0.2,0.4,0.2,0.4,0l6.3-42.7c0-0.1,0.1-0.2,0.2-0.2h9.3c0.1,0,0.2,0.1,0.2,0.2L82.4,64.2C82.4,64.3,82.3,64.4,82.2,64.4z"/>
<path class="st0" d="M113.5,65.5c-9.1,0-15.1-6.2-15.1-15V15c0-8.7,6-15,15.1-15s15.1,6.3,15.1,15v35.5
	C128.6,59.3,122.6,65.5,113.5,65.5z M118.5,14.2c0-3-1.8-5.1-4.9-5.1s-4.9,2.1-4.9,5.1v37c0,3,1.8,5.1,4.9,5.1s4.9-2.1,4.9-5.1V14.2
	z"/>
<path class="st0" d="M159.3,64.4c-0.1,0-0.2-0.1-0.2-0.1l-10.6-28.5l-3.1-8.6c-0.1-0.2-0.4-0.2-0.4,0.1v37c0,0.1-0.1,0.2-0.2,0.2
	h-8.7c-0.1,0-0.2-0.1-0.2-0.2v-63c0-0.1,0.1-0.2,0.2-0.2h8.6c0.1,0,0.2,0.1,0.2,0.1l9.8,28.8l2.8,8.6c0.1,0.2,0.4,0.2,0.4-0.1V1.3
	c0-0.1,0.1-0.2,0.2-0.2h8.6c0.1,0,0.2,0.1,0.2,0.2v62.8c0,0.1-0.1,0.2-0.2,0.2h-7.4V64.4z"/>
<path class="st0" d="M175.9,64.2V1.3c0-0.1,0.1-0.2,0.2-0.2H201c0.1,0,0.2,0.1,0.2,0.2v8.5c0,0.1-0.1,0.2-0.2,0.2h-14.8
	c-0.1,0-0.2,0.1-0.2,0.2v17.1c0,0.1,0.1,0.2,0.2,0.2h10.1c0.1,0,0.2,0.1,0.2,0.2v8c0,0.1-0.1,0.2-0.2,0.2h-10.1
	c-0.1,0-0.2,0.1-0.2,0.2V55c0,0.1,0.1,0.2,0.2,0.2H201c0.1,0,0.2,0.1,0.2,0.2v8.8c0,0.1-0.1,0.2-0.2,0.2h-24.9
	C175.9,64.4,175.9,64.3,175.9,64.2z"/>
<text transform="matrix(1 0 0 1 1.983643e-04 50.2178)" class="st1 st2">CLIENT NAME</text>
</svg>
