<?xml version="1.0" encoding="utf-8"?>
<!-- Generator: Adobe Illustrator 21.1.0, SVG Export Plug-In . SVG Version: 6.00 Build 0)  -->
<svg version="1.1" id="Layer_1" xmlns="http://www.w3.org/2000/svg" xmlns:xlink="http://www.w3.org/1999/xlink" x="0px" y="0px"
	 viewBox="0 0 500 281" style="enable-background:new 0 0 500 281;" xml:space="preserve">
<style type="text/css">
	.st0{fill:#ECF0F1;}
	.st1{fill:none;stroke:#BDC3C7;stroke-width:3;stroke-miterlimit:10;}
</style>
<g>
	<rect class="st0" width="500" height="281"/>
	<rect x="1.5" y="1.6" class="st1" width="497" height="277.9"/>
	<path class="st1" d="M31,18.2c0,4.1-3.3,7.4-7.4,7.4c-4.1,0-7.4-3.3-7.4-7.4c0-4.1,3.3-7.4,7.4-7.4C27.7,10.8,31,14.2,31,18.2
		L31,18.2z M31,18.2"/>
	<path class="st1" d="M55.2,18.2c0,4.1-3.3,7.4-7.4,7.4c-4.1,0-7.4-3.3-7.4-7.4c0-4.1,3.3-7.4,7.4-7.4
		C51.9,10.8,55.2,14.2,55.2,18.2L55.2,18.2z M55.2,18.2"/>
	<path class="st1" d="M79.4,18.2c0,4.1-3.3,7.4-7.4,7.4c-4.1,0-7.4-3.3-7.4-7.4c0-4.1,3.3-7.4,7.4-7.4
		C76.1,10.8,79.4,14.2,79.4,18.2L79.4,18.2z M79.4,18.2"/>
	<rect x="43.1" y="60.7" class="st1" width="413.8" height="79.8"/>
	<rect x="267.3" y="164.7" class="st1" width="189.6" height="92"/>
	<rect x="43.1" y="164.7" class="st1" width="189.7" height="92"/>
</g>
<line class="st1" x1="43.1" y1="60.7" x2="456.9" y2="140.5"/>
<line class="st1" x1="456.9" y1="60.7" x2="43.1" y2="140.5"/>
<line class="st1" x1="43.1" y1="164.7" x2="232.8" y2="256.8"/>
<line class="st1" x1="232.8" y1="164.7" x2="43.1" y2="256.8"/>
<line class="st1" x1="267.3" y1="164.7" x2="456.9" y2="256.8"/>
<line class="st1" x1="456.9" y1="164.7" x2="267.3" y2="256.8"/>
<line class="st1" x1="498.5" y1="36.5" x2="1.5" y2="36.5"/>
</svg>
